<svg id="Capa_1" enable-background="new 0 0 512.934 512.934" height="512" viewBox="0 0 512.934 512.934" width="512" xmlns="http://www.w3.org/2000/svg"><g><path d="m380.717 297.707v-90h-90l60 100.798c9.803-4.103 19.817-7.712 30-10.798z" fill="#3857bc"/><path d="m196.467 207.707 60 161.736c27.513-25.703 59.56-46.419 94.25-60.938v-100.798z" fill="#3a6fd8"/><path d="m132.217 207.707v90c46.216 14.004 88.962 38.769 124.25 71.736v-161.736z" fill="#3b88f5"/><path d="m504.967 150.972-248.5-143.472-30 17.32v143.472h248.5z" fill="#3b88f5"/><path d="m226.467 24.82-218.5 126.152 248.5 143.471 218.5-126.151z" fill="#28a6fa"/><path d="m263.967 137.981c-4.641-2.679-10.359-2.679-15 0l-116.751 67.406c-9.282 5.359-15 15.263-15 25.98v168.089h30v-168.088l116.75-67.406c10.001-5.774 10.001-20.208.001-25.981z" fill="#fec"/><path d="m132.217 365.433-15 79.066 45-30v-19.066c0-16.568-13.432-30-30-30z" fill="#ffcf66"/><path d="m132.217 365.433c-16.569 0-30 13.432-30 30v19.067l30 30z" fill="#ffe09e"/><path d="m132.217 505.433h30v-90.933h-30l-15 45.467z" fill="#ffe09e"/><path d="m102.217 414.5h30v90.934h-30z" fill="#fec"/><path d="m350.717 207.707v100.798c0-23.862 0-79.075 0-100.798z" fill="#3b88f5"/><path d="m508.717 144.477-248.5-143.472c-2.32-1.34-5.18-1.34-7.5 0l-248.5 143.472c-2.32 1.34-3.75 3.815-3.75 6.495s1.43 5.155 3.75 6.495l87.311 50.408c3.586 2.07 8.174.843 10.245-2.745 2.071-3.587.842-8.174-2.745-10.245l-76.061-43.913 233.5-134.812 233.5 134.812-233.5 134.812-94.251-54.416 105.501-60.91c7.044-4.067 11.25-11.352 11.25-19.485s-4.206-15.418-11.25-19.485c-6.938-4.007-15.561-4.007-22.5 0l-116.751 67.405c-11.565 6.678-18.75 19.122-18.75 32.477v134.086c-9.102 6.849-15 17.737-15 29.979v110c0 4.143 3.358 7.5 7.5 7.5h60c4.142 0 7.5-3.357 7.5-7.5v-110c0-12.242-5.898-23.132-15-29.98v-51.886c35.46 14.196 68.691 35.253 96.63 61.356 1.441 1.347 3.281 2.02 5.12 2.02s3.679-.673 5.12-2.02c34.494-32.225 76.44-56.443 121.305-70.039 3.163-.958 5.325-3.873 5.325-7.178v-70.67l120.5-69.57c2.32-1.34 3.75-3.815 3.75-6.495s-1.429-5.157-3.749-6.496zm-399 277.523h15v75.934h-15zm30 75.934v-75.934h15v75.934zm15-90.934h-45v-11.566c0-12.406 10.093-22.5 22.5-22.5s22.5 10.094 22.5 22.5zm-22.5-49.066c-2.568 0-5.076.261-7.5.755v-127.32c0-8.013 4.311-15.479 11.25-19.486l116.75-67.405c2.313-1.336 5.187-1.336 7.5 0 3.385 1.954 3.75 5.193 3.75 6.495s-.365 4.541-3.75 6.495l-116.75 67.405c-2.32 1.34-3.75 3.815-3.75 6.495v127.321c-2.425-.495-4.933-.755-7.5-.755zm22.499-113.577 94.25 54.416v54.035c-28.003-23.521-60.218-42.455-94.25-55.34zm218.501 47.837c-39.727 12.812-77.106 33.58-109.25 60.604v-54.025l109.25-63.076z"/></g></svg>